<svg width="69" height="74" viewBox="0 0 69 74" fill="none" xmlns="http://www.w3.org/2000/svg">
<path id="logo" d="M39.3574 73.5494C33.8854 73.5494 28.7849 72.6712 24.056 70.9148C19.3947 69.0908 15.3414 66.5236 11.896 63.2134C8.45069 59.9032 5.74847 56.0187 3.78936 51.5601C1.8978 47.1014 0.952026 42.2036 0.952026 36.8667C0.952026 31.5299 1.8978 26.6321 3.78936 22.1734C5.74847 17.7147 8.45069 13.8303 11.896 10.5201C15.4089 7.20986 19.496 4.67652 24.1574 2.92008C28.8187 1.09608 33.9191 0.184082 39.4587 0.184082C45.6063 0.184082 51.1458 1.26497 56.0774 3.42675C61.0765 5.52097 65.2649 8.62853 68.6427 12.7494L58.104 22.4774C55.672 19.7076 52.9698 17.6472 49.9974 16.2961C47.0249 14.8774 43.7823 14.1681 40.2694 14.1681C36.9591 14.1681 33.9191 14.7085 31.1494 15.7894C28.3796 16.8703 25.9814 18.4241 23.9547 20.4507C21.928 22.4774 20.3405 24.8756 19.192 27.6454C18.1111 30.4152 17.5707 33.489 17.5707 36.8667C17.5707 40.2445 18.1111 43.3183 19.192 46.0881C20.3405 48.8579 21.928 51.2561 23.9547 53.2828C25.9814 55.3094 28.3796 56.8632 31.1494 57.9441C33.9191 59.025 36.9591 59.5654 40.2694 59.5654C43.7823 59.5654 47.0249 58.8899 49.9974 57.5387C52.9698 56.1201 55.672 53.9921 58.104 51.1548L68.6427 60.8828C65.2649 65.0036 61.0765 68.145 56.0774 70.3068C51.1458 72.4685 45.5725 73.5494 39.3574 73.5494Z" fill="#ECEEF0"/>
</svg>
