<svg width="1440" height="540" viewBox="0 0 1440 540" fill="none" xmlns="http://www.w3.org/2000/svg">
<path fill-rule="evenodd" clip-rule="evenodd" d="M0 90H90V0H89V89H0V90Z" fill="url(#paint0_linear_10_379)"/>
<path fill-rule="evenodd" clip-rule="evenodd" d="M90 0V90H180V0H179V89H91V0H90Z" fill="url(#paint1_linear_10_379)"/>
<path fill-rule="evenodd" clip-rule="evenodd" d="M180 0V90H270V0H269V89H181V0H180Z" fill="url(#paint2_linear_10_379)"/>
<path fill-rule="evenodd" clip-rule="evenodd" d="M270 0V90H360V0H359V89H271V0H270Z" fill="url(#paint3_linear_10_379)"/>
<path fill-rule="evenodd" clip-rule="evenodd" d="M360 0V90H450V0H449V89H361V0H360Z" fill="url(#paint4_linear_10_379)"/>
<path fill-rule="evenodd" clip-rule="evenodd" d="M450 0V90H540V0H539V89H451V0H450Z" fill="url(#paint5_linear_10_379)"/>
<path fill-rule="evenodd" clip-rule="evenodd" d="M540 0V90H630V0H629V89H541V0H540Z" fill="url(#paint6_linear_10_379)"/>
<path fill-rule="evenodd" clip-rule="evenodd" d="M630 0V90H720V0H719V89H631V0H630Z" fill="url(#paint7_linear_10_379)"/>
<path fill-rule="evenodd" clip-rule="evenodd" d="M720 0V90H810V0H809V89H721V0H720Z" fill="url(#paint8_linear_10_379)"/>
<path fill-rule="evenodd" clip-rule="evenodd" d="M810 0V90H900V0H899V89H811V0H810Z" fill="url(#paint9_linear_10_379)"/>
<path fill-rule="evenodd" clip-rule="evenodd" d="M900 0V90H990V0H989V89H901V0H900Z" fill="url(#paint10_linear_10_379)"/>
<path fill-rule="evenodd" clip-rule="evenodd" d="M990 0V90H1080V0H1079V89H991V0H990Z" fill="url(#paint11_linear_10_379)"/>
<path fill-rule="evenodd" clip-rule="evenodd" d="M1080 0V90H1170V0H1169V89H1081V0H1080Z" fill="url(#paint12_linear_10_379)"/>
<path fill-rule="evenodd" clip-rule="evenodd" d="M1170 0V90H1260V0H1259V89H1171V0H1170Z" fill="url(#paint13_linear_10_379)"/>
<path fill-rule="evenodd" clip-rule="evenodd" d="M1260 0V90H1350V0H1349V89H1261V0H1260Z" fill="url(#paint14_linear_10_379)"/>
<path fill-rule="evenodd" clip-rule="evenodd" d="M1350 0V90H1440V89H1351V0H1350Z" fill="url(#paint15_linear_10_379)"/>
<path fill-rule="evenodd" clip-rule="evenodd" d="M0 180H90V90H0V91H89V179H0V180Z" fill="url(#paint16_linear_10_379)"/>
<path fill-rule="evenodd" clip-rule="evenodd" d="M179 91H91V179H179V91ZM90 90V180H180V90H90Z" fill="url(#paint17_linear_10_379)"/>
<path fill-rule="evenodd" clip-rule="evenodd" d="M269 91H181V179H269V91ZM180 90V180H270V90H180Z" fill="url(#paint18_linear_10_379)"/>
<path fill-rule="evenodd" clip-rule="evenodd" d="M359 91H271V179H359V91ZM270 90V180H360V90H270Z" fill="url(#paint19_linear_10_379)"/>
<path fill-rule="evenodd" clip-rule="evenodd" d="M449 91H361V179H449V91ZM360 90V180H450V90H360Z" fill="url(#paint20_linear_10_379)"/>
<path fill-rule="evenodd" clip-rule="evenodd" d="M539 91H451V179H539V91ZM450 90V180H540V90H450Z" fill="url(#paint21_linear_10_379)"/>
<path fill-rule="evenodd" clip-rule="evenodd" d="M629 91H541V179H629V91ZM540 90V180H630V90H540Z" fill="url(#paint22_linear_10_379)"/>
<path fill-rule="evenodd" clip-rule="evenodd" d="M719 91H631V179H719V91ZM630 90V180H720V90H630Z" fill="url(#paint23_linear_10_379)"/>
<path fill-rule="evenodd" clip-rule="evenodd" d="M809 91H721V179H809V91ZM720 90V180H810V90H720Z" fill="url(#paint24_linear_10_379)"/>
<path fill-rule="evenodd" clip-rule="evenodd" d="M899 91H811V179H899V91ZM810 90V180H900V90H810Z" fill="url(#paint25_linear_10_379)"/>
<path fill-rule="evenodd" clip-rule="evenodd" d="M989 91H901V179H989V91ZM900 90V180H990V90H900Z" fill="url(#paint26_linear_10_379)"/>
<path fill-rule="evenodd" clip-rule="evenodd" d="M1079 91H991V179H1079V91ZM990 90V180H1080V90H990Z" fill="url(#paint27_linear_10_379)"/>
<path fill-rule="evenodd" clip-rule="evenodd" d="M1169 91H1081V179H1169V91ZM1080 90V180H1170V90H1080Z" fill="url(#paint28_linear_10_379)"/>
<path fill-rule="evenodd" clip-rule="evenodd" d="M1259 91H1171V179H1259V91ZM1170 90V180H1260V90H1170Z" fill="url(#paint29_linear_10_379)"/>
<path fill-rule="evenodd" clip-rule="evenodd" d="M1349 91H1261V179H1349V91ZM1260 90V180H1350V90H1260Z" fill="url(#paint30_linear_10_379)"/>
<path fill-rule="evenodd" clip-rule="evenodd" d="M1440 90H1350V180H1440V179H1351V91H1440V90Z" fill="url(#paint31_linear_10_379)"/>
<path fill-rule="evenodd" clip-rule="evenodd" d="M0 270H90V180H0V181H89V269H0V270Z" fill="url(#paint32_linear_10_379)"/>
<path fill-rule="evenodd" clip-rule="evenodd" d="M179 181H91V269H179V181ZM90 180V270H180V180H90Z" fill="url(#paint33_linear_10_379)"/>
<path fill-rule="evenodd" clip-rule="evenodd" d="M269 181H181V269H269V181ZM180 180V270H270V180H180Z" fill="url(#paint34_linear_10_379)"/>
<path fill-rule="evenodd" clip-rule="evenodd" d="M359 181H271V269H359V181ZM270 180V270H360V180H270Z" fill="url(#paint35_linear_10_379)"/>
<path fill-rule="evenodd" clip-rule="evenodd" d="M449 181H361V269H449V181ZM360 180V270H450V180H360Z" fill="url(#paint36_linear_10_379)"/>
<path fill-rule="evenodd" clip-rule="evenodd" d="M539 181H451V269H539V181ZM450 180V270H540V180H450Z" fill="url(#paint37_linear_10_379)"/>
<path fill-rule="evenodd" clip-rule="evenodd" d="M629 181H541V269H629V181ZM540 180V270H630V180H540Z" fill="url(#paint38_linear_10_379)"/>
<path fill-rule="evenodd" clip-rule="evenodd" d="M719 181H631V269H719V181ZM630 180V270H720V180H630Z" fill="url(#paint39_linear_10_379)"/>
<path fill-rule="evenodd" clip-rule="evenodd" d="M809 181H721V269H809V181ZM720 180V270H810V180H720Z" fill="url(#paint40_linear_10_379)"/>
<path fill-rule="evenodd" clip-rule="evenodd" d="M899 181H811V269H899V181ZM810 180V270H900V180H810Z" fill="url(#paint41_linear_10_379)"/>
<path fill-rule="evenodd" clip-rule="evenodd" d="M989 181H901V269H989V181ZM900 180V270H990V180H900Z" fill="url(#paint42_linear_10_379)"/>
<path fill-rule="evenodd" clip-rule="evenodd" d="M1079 181H991V269H1079V181ZM990 180V270H1080V180H990Z" fill="url(#paint43_linear_10_379)"/>
<path fill-rule="evenodd" clip-rule="evenodd" d="M1169 181H1081V269H1169V181ZM1080 180V270H1170V180H1080Z" fill="url(#paint44_linear_10_379)"/>
<path fill-rule="evenodd" clip-rule="evenodd" d="M1259 181H1171V269H1259V181ZM1170 180V270H1260V180H1170Z" fill="url(#paint45_linear_10_379)"/>
<path fill-rule="evenodd" clip-rule="evenodd" d="M1349 181H1261V269H1349V181ZM1260 180V270H1350V180H1260Z" fill="url(#paint46_linear_10_379)"/>
<path fill-rule="evenodd" clip-rule="evenodd" d="M1440 180H1350V270H1440V269H1351V181H1440V180Z" fill="url(#paint47_linear_10_379)"/>
<path fill-rule="evenodd" clip-rule="evenodd" d="M0 360H90V270H0V271H89V359H0V360Z" fill="url(#paint48_linear_10_379)"/>
<path fill-rule="evenodd" clip-rule="evenodd" d="M179 271H91V359H179V271ZM90 270V360H180V270H90Z" fill="url(#paint49_linear_10_379)"/>
<path fill-rule="evenodd" clip-rule="evenodd" d="M269 271H181V359H269V271ZM180 270V360H270V270H180Z" fill="url(#paint50_linear_10_379)"/>
<path fill-rule="evenodd" clip-rule="evenodd" d="M359 271H271V359H359V271ZM270 270V360H360V270H270Z" fill="url(#paint51_linear_10_379)"/>
<path fill-rule="evenodd" clip-rule="evenodd" d="M449 271H361V359H449V271ZM360 270V360H450V270H360Z" fill="url(#paint52_linear_10_379)"/>
<path fill-rule="evenodd" clip-rule="evenodd" d="M539 271H451V359H539V271ZM450 270V360H540V270H450Z" fill="url(#paint53_linear_10_379)"/>
<path fill-rule="evenodd" clip-rule="evenodd" d="M629 271H541V359H629V271ZM540 270V360H630V270H540Z" fill="url(#paint54_linear_10_379)"/>
<path fill-rule="evenodd" clip-rule="evenodd" d="M719 271H631V359H719V271ZM630 270V360H720V270H630Z" fill="url(#paint55_linear_10_379)"/>
<path fill-rule="evenodd" clip-rule="evenodd" d="M809 271H721V359H809V271ZM720 270V360H810V270H720Z" fill="url(#paint56_linear_10_379)"/>
<path fill-rule="evenodd" clip-rule="evenodd" d="M899 271H811V359H899V271ZM810 270V360H900V270H810Z" fill="url(#paint57_linear_10_379)"/>
<path fill-rule="evenodd" clip-rule="evenodd" d="M989 271H901V359H989V271ZM900 270V360H990V270H900Z" fill="url(#paint58_linear_10_379)"/>
<path fill-rule="evenodd" clip-rule="evenodd" d="M1079 271H991V359H1079V271ZM990 270V360H1080V270H990Z" fill="url(#paint59_linear_10_379)"/>
<path fill-rule="evenodd" clip-rule="evenodd" d="M1169 271H1081V359H1169V271ZM1080 270V360H1170V270H1080Z" fill="url(#paint60_linear_10_379)"/>
<path fill-rule="evenodd" clip-rule="evenodd" d="M1259 271H1171V359H1259V271ZM1170 270V360H1260V270H1170Z" fill="url(#paint61_linear_10_379)"/>
<path fill-rule="evenodd" clip-rule="evenodd" d="M1349 271H1261V359H1349V271ZM1260 270V360H1350V270H1260Z" fill="url(#paint62_linear_10_379)"/>
<path fill-rule="evenodd" clip-rule="evenodd" d="M1440 270H1350V360H1440V359H1351V271H1440V270Z" fill="url(#paint63_linear_10_379)"/>
<path fill-rule="evenodd" clip-rule="evenodd" d="M0 450H90V360H0V361H89V449H0V450Z" fill="url(#paint64_linear_10_379)"/>
<path fill-rule="evenodd" clip-rule="evenodd" d="M179 361H91V449H179V361ZM90 360V450H180V360H90Z" fill="url(#paint65_linear_10_379)"/>
<path fill-rule="evenodd" clip-rule="evenodd" d="M269 361H181V449H269V361ZM180 360V450H270V360H180Z" fill="url(#paint66_linear_10_379)"/>
<path fill-rule="evenodd" clip-rule="evenodd" d="M359 361H271V449H359V361ZM270 360V450H360V360H270Z" fill="url(#paint67_linear_10_379)"/>
<path fill-rule="evenodd" clip-rule="evenodd" d="M449 361H361V449H449V361ZM360 360V450H450V360H360Z" fill="url(#paint68_linear_10_379)"/>
<path fill-rule="evenodd" clip-rule="evenodd" d="M539 361H451V449H539V361ZM450 360V450H540V360H450Z" fill="url(#paint69_linear_10_379)"/>
<path fill-rule="evenodd" clip-rule="evenodd" d="M629 361H541V449H629V361ZM540 360V450H630V360H540Z" fill="url(#paint70_linear_10_379)"/>
<path fill-rule="evenodd" clip-rule="evenodd" d="M719 361H631V449H719V361ZM630 360V450H720V360H630Z" fill="url(#paint71_linear_10_379)"/>
<path fill-rule="evenodd" clip-rule="evenodd" d="M809 361H721V449H809V361ZM720 360V450H810V360H720Z" fill="url(#paint72_linear_10_379)"/>
<path fill-rule="evenodd" clip-rule="evenodd" d="M899 361H811V449H899V361ZM810 360V450H900V360H810Z" fill="url(#paint73_linear_10_379)"/>
<path fill-rule="evenodd" clip-rule="evenodd" d="M989 361H901V449H989V361ZM900 360V450H990V360H900Z" fill="url(#paint74_linear_10_379)"/>
<path fill-rule="evenodd" clip-rule="evenodd" d="M1079 361H991V449H1079V361ZM990 360V450H1080V360H990Z" fill="url(#paint75_linear_10_379)"/>
<path fill-rule="evenodd" clip-rule="evenodd" d="M1169 361H1081V449H1169V361ZM1080 360V450H1170V360H1080Z" fill="url(#paint76_linear_10_379)"/>
<path fill-rule="evenodd" clip-rule="evenodd" d="M1259 361H1171V449H1259V361ZM1170 360V450H1260V360H1170Z" fill="url(#paint77_linear_10_379)"/>
<path fill-rule="evenodd" clip-rule="evenodd" d="M1349 361H1261V449H1349V361ZM1260 360V450H1350V360H1260Z" fill="url(#paint78_linear_10_379)"/>
<path fill-rule="evenodd" clip-rule="evenodd" d="M1440 360H1350V450H1440V449H1351V361H1440V360Z" fill="url(#paint79_linear_10_379)"/>
<path fill-rule="evenodd" clip-rule="evenodd" d="M90 540V450H0V451H89V540H90Z" fill="url(#paint80_linear_10_379)"/>
<path fill-rule="evenodd" clip-rule="evenodd" d="M180 540V450H90V540H91V451H179V540H180Z" fill="url(#paint81_linear_10_379)"/>
<path fill-rule="evenodd" clip-rule="evenodd" d="M270 540V450H180V540H181V451H269V540H270Z" fill="url(#paint82_linear_10_379)"/>
<path fill-rule="evenodd" clip-rule="evenodd" d="M360 540V450H270V540H271V451H359V540H360Z" fill="url(#paint83_linear_10_379)"/>
<path fill-rule="evenodd" clip-rule="evenodd" d="M450 540V450H360V540H361V451H449V540H450Z" fill="url(#paint84_linear_10_379)"/>
<path fill-rule="evenodd" clip-rule="evenodd" d="M540 540V450H450V540H451V451H539V540H540Z" fill="url(#paint85_linear_10_379)"/>
<path fill-rule="evenodd" clip-rule="evenodd" d="M630 540V450H540V540H541V451H629V540H630Z" fill="url(#paint86_linear_10_379)"/>
<path fill-rule="evenodd" clip-rule="evenodd" d="M720 540V450H630V540H631V451H719V540H720Z" fill="url(#paint87_linear_10_379)"/>
<path fill-rule="evenodd" clip-rule="evenodd" d="M810 540V450H720V540H721V451H809V540H810Z" fill="url(#paint88_linear_10_379)"/>
<path fill-rule="evenodd" clip-rule="evenodd" d="M900 540V450H810V540H811V451H899V540H900Z" fill="url(#paint89_linear_10_379)"/>
<path fill-rule="evenodd" clip-rule="evenodd" d="M990 540V450H900V540H901V451H989V540H990Z" fill="url(#paint90_linear_10_379)"/>
<path fill-rule="evenodd" clip-rule="evenodd" d="M1080 540V450H990V540H991V451H1079V540H1080Z" fill="url(#paint91_linear_10_379)"/>
<path fill-rule="evenodd" clip-rule="evenodd" d="M1170 540V450H1080V540H1081V451H1169V540H1170Z" fill="url(#paint92_linear_10_379)"/>
<path fill-rule="evenodd" clip-rule="evenodd" d="M1260 540V450H1170V540H1171V451H1259V540H1260Z" fill="url(#paint93_linear_10_379)"/>
<path fill-rule="evenodd" clip-rule="evenodd" d="M1350 540V450H1260V540H1261V451H1349V540H1350Z" fill="url(#paint94_linear_10_379)"/>
<path fill-rule="evenodd" clip-rule="evenodd" d="M1440 450H1350V540H1351V451H1440V450Z" fill="url(#paint95_linear_10_379)"/>
<defs>
<linearGradient id="paint0_linear_10_379" x1="-5.36442e-06" y1="270" x2="1440" y2="270" gradientUnits="userSpaceOnUse">
<stop stop-color="white" stop-opacity="0"/>
<stop offset="0.5" stop-color="white" stop-opacity="0.04"/>
<stop offset="1" stop-color="white" stop-opacity="0"/>
</linearGradient>
<linearGradient id="paint1_linear_10_379" x1="-5.36442e-06" y1="270" x2="1440" y2="270" gradientUnits="userSpaceOnUse">
<stop stop-color="white" stop-opacity="0"/>
<stop offset="0.5" stop-color="white" stop-opacity="0.04"/>
<stop offset="1" stop-color="white" stop-opacity="0"/>
</linearGradient>
<linearGradient id="paint2_linear_10_379" x1="-5.36442e-06" y1="270" x2="1440" y2="270" gradientUnits="userSpaceOnUse">
<stop stop-color="white" stop-opacity="0"/>
<stop offset="0.5" stop-color="white" stop-opacity="0.04"/>
<stop offset="1" stop-color="white" stop-opacity="0"/>
</linearGradient>
<linearGradient id="paint3_linear_10_379" x1="-5.36442e-06" y1="270" x2="1440" y2="270" gradientUnits="userSpaceOnUse">
<stop stop-color="white" stop-opacity="0"/>
<stop offset="0.5" stop-color="white" stop-opacity="0.04"/>
<stop offset="1" stop-color="white" stop-opacity="0"/>
</linearGradient>
<linearGradient id="paint4_linear_10_379" x1="-5.36442e-06" y1="270" x2="1440" y2="270" gradientUnits="userSpaceOnUse">
<stop stop-color="white" stop-opacity="0"/>
<stop offset="0.5" stop-color="white" stop-opacity="0.04"/>
<stop offset="1" stop-color="white" stop-opacity="0"/>
</linearGradient>
<linearGradient id="paint5_linear_10_379" x1="-5.36442e-06" y1="270" x2="1440" y2="270" gradientUnits="userSpaceOnUse">
<stop stop-color="white" stop-opacity="0"/>
<stop offset="0.5" stop-color="white" stop-opacity="0.04"/>
<stop offset="1" stop-color="white" stop-opacity="0"/>
</linearGradient>
<linearGradient id="paint6_linear_10_379" x1="-5.36442e-06" y1="270" x2="1440" y2="270" gradientUnits="userSpaceOnUse">
<stop stop-color="white" stop-opacity="0"/>
<stop offset="0.5" stop-color="white" stop-opacity="0.04"/>
<stop offset="1" stop-color="white" stop-opacity="0"/>
</linearGradient>
<linearGradient id="paint7_linear_10_379" x1="-5.36442e-06" y1="270" x2="1440" y2="270" gradientUnits="userSpaceOnUse">
<stop stop-color="white" stop-opacity="0"/>
<stop offset="0.5" stop-color="white" stop-opacity="0.04"/>
<stop offset="1" stop-color="white" stop-opacity="0"/>
</linearGradient>
<linearGradient id="paint8_linear_10_379" x1="-5.36442e-06" y1="270" x2="1440" y2="270" gradientUnits="userSpaceOnUse">
<stop stop-color="white" stop-opacity="0"/>
<stop offset="0.5" stop-color="white" stop-opacity="0.04"/>
<stop offset="1" stop-color="white" stop-opacity="0"/>
</linearGradient>
<linearGradient id="paint9_linear_10_379" x1="-5.36442e-06" y1="270" x2="1440" y2="270" gradientUnits="userSpaceOnUse">
<stop stop-color="white" stop-opacity="0"/>
<stop offset="0.5" stop-color="white" stop-opacity="0.04"/>
<stop offset="1" stop-color="white" stop-opacity="0"/>
</linearGradient>
<linearGradient id="paint10_linear_10_379" x1="-5.36442e-06" y1="270" x2="1440" y2="270" gradientUnits="userSpaceOnUse">
<stop stop-color="white" stop-opacity="0"/>
<stop offset="0.5" stop-color="white" stop-opacity="0.04"/>
<stop offset="1" stop-color="white" stop-opacity="0"/>
</linearGradient>
<linearGradient id="paint11_linear_10_379" x1="-5.36442e-06" y1="270" x2="1440" y2="270" gradientUnits="userSpaceOnUse">
<stop stop-color="white" stop-opacity="0"/>
<stop offset="0.5" stop-color="white" stop-opacity="0.04"/>
<stop offset="1" stop-color="white" stop-opacity="0"/>
</linearGradient>
<linearGradient id="paint12_linear_10_379" x1="-5.36442e-06" y1="270" x2="1440" y2="270" gradientUnits="userSpaceOnUse">
<stop stop-color="white" stop-opacity="0"/>
<stop offset="0.5" stop-color="white" stop-opacity="0.04"/>
<stop offset="1" stop-color="white" stop-opacity="0"/>
</linearGradient>
<linearGradient id="paint13_linear_10_379" x1="-5.36442e-06" y1="270" x2="1440" y2="270" gradientUnits="userSpaceOnUse">
<stop stop-color="white" stop-opacity="0"/>
<stop offset="0.5" stop-color="white" stop-opacity="0.04"/>
<stop offset="1" stop-color="white" stop-opacity="0"/>
</linearGradient>
<linearGradient id="paint14_linear_10_379" x1="-5.36442e-06" y1="270" x2="1440" y2="270" gradientUnits="userSpaceOnUse">
<stop stop-color="white" stop-opacity="0"/>
<stop offset="0.5" stop-color="white" stop-opacity="0.04"/>
<stop offset="1" stop-color="white" stop-opacity="0"/>
</linearGradient>
<linearGradient id="paint15_linear_10_379" x1="-5.36442e-06" y1="270" x2="1440" y2="270" gradientUnits="userSpaceOnUse">
<stop stop-color="white" stop-opacity="0"/>
<stop offset="0.5" stop-color="white" stop-opacity="0.04"/>
<stop offset="1" stop-color="white" stop-opacity="0"/>
</linearGradient>
<linearGradient id="paint16_linear_10_379" x1="-5.36442e-06" y1="270" x2="1440" y2="270" gradientUnits="userSpaceOnUse">
<stop stop-color="white" stop-opacity="0"/>
<stop offset="0.5" stop-color="white" stop-opacity="0.04"/>
<stop offset="1" stop-color="white" stop-opacity="0"/>
</linearGradient>
<linearGradient id="paint17_linear_10_379" x1="-5.36442e-06" y1="270" x2="1440" y2="270" gradientUnits="userSpaceOnUse">
<stop stop-color="white" stop-opacity="0"/>
<stop offset="0.5" stop-color="white" stop-opacity="0.04"/>
<stop offset="1" stop-color="white" stop-opacity="0"/>
</linearGradient>
<linearGradient id="paint18_linear_10_379" x1="-5.36442e-06" y1="270" x2="1440" y2="270" gradientUnits="userSpaceOnUse">
<stop stop-color="white" stop-opacity="0"/>
<stop offset="0.5" stop-color="white" stop-opacity="0.04"/>
<stop offset="1" stop-color="white" stop-opacity="0"/>
</linearGradient>
<linearGradient id="paint19_linear_10_379" x1="-5.36442e-06" y1="270" x2="1440" y2="270" gradientUnits="userSpaceOnUse">
<stop stop-color="white" stop-opacity="0"/>
<stop offset="0.5" stop-color="white" stop-opacity="0.04"/>
<stop offset="1" stop-color="white" stop-opacity="0"/>
</linearGradient>
<linearGradient id="paint20_linear_10_379" x1="-5.36442e-06" y1="270" x2="1440" y2="270" gradientUnits="userSpaceOnUse">
<stop stop-color="white" stop-opacity="0"/>
<stop offset="0.5" stop-color="white" stop-opacity="0.04"/>
<stop offset="1" stop-color="white" stop-opacity="0"/>
</linearGradient>
<linearGradient id="paint21_linear_10_379" x1="-5.36442e-06" y1="270" x2="1440" y2="270" gradientUnits="userSpaceOnUse">
<stop stop-color="white" stop-opacity="0"/>
<stop offset="0.5" stop-color="white" stop-opacity="0.04"/>
<stop offset="1" stop-color="white" stop-opacity="0"/>
</linearGradient>
<linearGradient id="paint22_linear_10_379" x1="-5.36442e-06" y1="270" x2="1440" y2="270" gradientUnits="userSpaceOnUse">
<stop stop-color="white" stop-opacity="0"/>
<stop offset="0.5" stop-color="white" stop-opacity="0.04"/>
<stop offset="1" stop-color="white" stop-opacity="0"/>
</linearGradient>
<linearGradient id="paint23_linear_10_379" x1="-5.36442e-06" y1="270" x2="1440" y2="270" gradientUnits="userSpaceOnUse">
<stop stop-color="white" stop-opacity="0"/>
<stop offset="0.5" stop-color="white" stop-opacity="0.04"/>
<stop offset="1" stop-color="white" stop-opacity="0"/>
</linearGradient>
<linearGradient id="paint24_linear_10_379" x1="-5.36442e-06" y1="270" x2="1440" y2="270" gradientUnits="userSpaceOnUse">
<stop stop-color="white" stop-opacity="0"/>
<stop offset="0.5" stop-color="white" stop-opacity="0.04"/>
<stop offset="1" stop-color="white" stop-opacity="0"/>
</linearGradient>
<linearGradient id="paint25_linear_10_379" x1="-5.36442e-06" y1="270" x2="1440" y2="270" gradientUnits="userSpaceOnUse">
<stop stop-color="white" stop-opacity="0"/>
<stop offset="0.5" stop-color="white" stop-opacity="0.04"/>
<stop offset="1" stop-color="white" stop-opacity="0"/>
</linearGradient>
<linearGradient id="paint26_linear_10_379" x1="-5.36442e-06" y1="270" x2="1440" y2="270" gradientUnits="userSpaceOnUse">
<stop stop-color="white" stop-opacity="0"/>
<stop offset="0.5" stop-color="white" stop-opacity="0.04"/>
<stop offset="1" stop-color="white" stop-opacity="0"/>
</linearGradient>
<linearGradient id="paint27_linear_10_379" x1="-5.36442e-06" y1="270" x2="1440" y2="270" gradientUnits="userSpaceOnUse">
<stop stop-color="white" stop-opacity="0"/>
<stop offset="0.5" stop-color="white" stop-opacity="0.04"/>
<stop offset="1" stop-color="white" stop-opacity="0"/>
</linearGradient>
<linearGradient id="paint28_linear_10_379" x1="-5.36442e-06" y1="270" x2="1440" y2="270" gradientUnits="userSpaceOnUse">
<stop stop-color="white" stop-opacity="0"/>
<stop offset="0.5" stop-color="white" stop-opacity="0.04"/>
<stop offset="1" stop-color="white" stop-opacity="0"/>
</linearGradient>
<linearGradient id="paint29_linear_10_379" x1="-5.36442e-06" y1="270" x2="1440" y2="270" gradientUnits="userSpaceOnUse">
<stop stop-color="white" stop-opacity="0"/>
<stop offset="0.5" stop-color="white" stop-opacity="0.04"/>
<stop offset="1" stop-color="white" stop-opacity="0"/>
</linearGradient>
<linearGradient id="paint30_linear_10_379" x1="-5.36442e-06" y1="270" x2="1440" y2="270" gradientUnits="userSpaceOnUse">
<stop stop-color="white" stop-opacity="0"/>
<stop offset="0.5" stop-color="white" stop-opacity="0.04"/>
<stop offset="1" stop-color="white" stop-opacity="0"/>
</linearGradient>
<linearGradient id="paint31_linear_10_379" x1="-5.36442e-06" y1="270" x2="1440" y2="270" gradientUnits="userSpaceOnUse">
<stop stop-color="white" stop-opacity="0"/>
<stop offset="0.5" stop-color="white" stop-opacity="0.04"/>
<stop offset="1" stop-color="white" stop-opacity="0"/>
</linearGradient>
<linearGradient id="paint32_linear_10_379" x1="-5.36442e-06" y1="270" x2="1440" y2="270" gradientUnits="userSpaceOnUse">
<stop stop-color="white" stop-opacity="0"/>
<stop offset="0.5" stop-color="white" stop-opacity="0.04"/>
<stop offset="1" stop-color="white" stop-opacity="0"/>
</linearGradient>
<linearGradient id="paint33_linear_10_379" x1="-5.36442e-06" y1="270" x2="1440" y2="270" gradientUnits="userSpaceOnUse">
<stop stop-color="white" stop-opacity="0"/>
<stop offset="0.5" stop-color="white" stop-opacity="0.04"/>
<stop offset="1" stop-color="white" stop-opacity="0"/>
</linearGradient>
<linearGradient id="paint34_linear_10_379" x1="-5.36442e-06" y1="270" x2="1440" y2="270" gradientUnits="userSpaceOnUse">
<stop stop-color="white" stop-opacity="0"/>
<stop offset="0.5" stop-color="white" stop-opacity="0.04"/>
<stop offset="1" stop-color="white" stop-opacity="0"/>
</linearGradient>
<linearGradient id="paint35_linear_10_379" x1="-5.36442e-06" y1="270" x2="1440" y2="270" gradientUnits="userSpaceOnUse">
<stop stop-color="white" stop-opacity="0"/>
<stop offset="0.5" stop-color="white" stop-opacity="0.04"/>
<stop offset="1" stop-color="white" stop-opacity="0"/>
</linearGradient>
<linearGradient id="paint36_linear_10_379" x1="-5.36442e-06" y1="270" x2="1440" y2="270" gradientUnits="userSpaceOnUse">
<stop stop-color="white" stop-opacity="0"/>
<stop offset="0.5" stop-color="white" stop-opacity="0.04"/>
<stop offset="1" stop-color="white" stop-opacity="0"/>
</linearGradient>
<linearGradient id="paint37_linear_10_379" x1="-5.36442e-06" y1="270" x2="1440" y2="270" gradientUnits="userSpaceOnUse">
<stop stop-color="white" stop-opacity="0"/>
<stop offset="0.5" stop-color="white" stop-opacity="0.04"/>
<stop offset="1" stop-color="white" stop-opacity="0"/>
</linearGradient>
<linearGradient id="paint38_linear_10_379" x1="-5.36442e-06" y1="270" x2="1440" y2="270" gradientUnits="userSpaceOnUse">
<stop stop-color="white" stop-opacity="0"/>
<stop offset="0.5" stop-color="white" stop-opacity="0.04"/>
<stop offset="1" stop-color="white" stop-opacity="0"/>
</linearGradient>
<linearGradient id="paint39_linear_10_379" x1="-5.36442e-06" y1="270" x2="1440" y2="270" gradientUnits="userSpaceOnUse">
<stop stop-color="white" stop-opacity="0"/>
<stop offset="0.5" stop-color="white" stop-opacity="0.04"/>
<stop offset="1" stop-color="white" stop-opacity="0"/>
</linearGradient>
<linearGradient id="paint40_linear_10_379" x1="-5.36442e-06" y1="270" x2="1440" y2="270" gradientUnits="userSpaceOnUse">
<stop stop-color="white" stop-opacity="0"/>
<stop offset="0.5" stop-color="white" stop-opacity="0.04"/>
<stop offset="1" stop-color="white" stop-opacity="0"/>
</linearGradient>
<linearGradient id="paint41_linear_10_379" x1="-5.36442e-06" y1="270" x2="1440" y2="270" gradientUnits="userSpaceOnUse">
<stop stop-color="white" stop-opacity="0"/>
<stop offset="0.5" stop-color="white" stop-opacity="0.04"/>
<stop offset="1" stop-color="white" stop-opacity="0"/>
</linearGradient>
<linearGradient id="paint42_linear_10_379" x1="-5.36442e-06" y1="270" x2="1440" y2="270" gradientUnits="userSpaceOnUse">
<stop stop-color="white" stop-opacity="0"/>
<stop offset="0.5" stop-color="white" stop-opacity="0.04"/>
<stop offset="1" stop-color="white" stop-opacity="0"/>
</linearGradient>
<linearGradient id="paint43_linear_10_379" x1="-5.36442e-06" y1="270" x2="1440" y2="270" gradientUnits="userSpaceOnUse">
<stop stop-color="white" stop-opacity="0"/>
<stop offset="0.5" stop-color="white" stop-opacity="0.04"/>
<stop offset="1" stop-color="white" stop-opacity="0"/>
</linearGradient>
<linearGradient id="paint44_linear_10_379" x1="-5.36442e-06" y1="270" x2="1440" y2="270" gradientUnits="userSpaceOnUse">
<stop stop-color="white" stop-opacity="0"/>
<stop offset="0.5" stop-color="white" stop-opacity="0.04"/>
<stop offset="1" stop-color="white" stop-opacity="0"/>
</linearGradient>
<linearGradient id="paint45_linear_10_379" x1="-5.36442e-06" y1="270" x2="1440" y2="270" gradientUnits="userSpaceOnUse">
<stop stop-color="white" stop-opacity="0"/>
<stop offset="0.5" stop-color="white" stop-opacity="0.04"/>
<stop offset="1" stop-color="white" stop-opacity="0"/>
</linearGradient>
<linearGradient id="paint46_linear_10_379" x1="-5.36442e-06" y1="270" x2="1440" y2="270" gradientUnits="userSpaceOnUse">
<stop stop-color="white" stop-opacity="0"/>
<stop offset="0.5" stop-color="white" stop-opacity="0.04"/>
<stop offset="1" stop-color="white" stop-opacity="0"/>
</linearGradient>
<linearGradient id="paint47_linear_10_379" x1="-5.36442e-06" y1="270" x2="1440" y2="270" gradientUnits="userSpaceOnUse">
<stop stop-color="white" stop-opacity="0"/>
<stop offset="0.5" stop-color="white" stop-opacity="0.04"/>
<stop offset="1" stop-color="white" stop-opacity="0"/>
</linearGradient>
<linearGradient id="paint48_linear_10_379" x1="-5.36442e-06" y1="270" x2="1440" y2="270" gradientUnits="userSpaceOnUse">
<stop stop-color="white" stop-opacity="0"/>
<stop offset="0.5" stop-color="white" stop-opacity="0.04"/>
<stop offset="1" stop-color="white" stop-opacity="0"/>
</linearGradient>
<linearGradient id="paint49_linear_10_379" x1="-5.36442e-06" y1="270" x2="1440" y2="270" gradientUnits="userSpaceOnUse">
<stop stop-color="white" stop-opacity="0"/>
<stop offset="0.5" stop-color="white" stop-opacity="0.04"/>
<stop offset="1" stop-color="white" stop-opacity="0"/>
</linearGradient>
<linearGradient id="paint50_linear_10_379" x1="-5.36442e-06" y1="270" x2="1440" y2="270" gradientUnits="userSpaceOnUse">
<stop stop-color="white" stop-opacity="0"/>
<stop offset="0.5" stop-color="white" stop-opacity="0.04"/>
<stop offset="1" stop-color="white" stop-opacity="0"/>
</linearGradient>
<linearGradient id="paint51_linear_10_379" x1="-5.36442e-06" y1="270" x2="1440" y2="270" gradientUnits="userSpaceOnUse">
<stop stop-color="white" stop-opacity="0"/>
<stop offset="0.5" stop-color="white" stop-opacity="0.04"/>
<stop offset="1" stop-color="white" stop-opacity="0"/>
</linearGradient>
<linearGradient id="paint52_linear_10_379" x1="-5.36442e-06" y1="270" x2="1440" y2="270" gradientUnits="userSpaceOnUse">
<stop stop-color="white" stop-opacity="0"/>
<stop offset="0.5" stop-color="white" stop-opacity="0.04"/>
<stop offset="1" stop-color="white" stop-opacity="0"/>
</linearGradient>
<linearGradient id="paint53_linear_10_379" x1="-5.36442e-06" y1="270" x2="1440" y2="270" gradientUnits="userSpaceOnUse">
<stop stop-color="white" stop-opacity="0"/>
<stop offset="0.5" stop-color="white" stop-opacity="0.04"/>
<stop offset="1" stop-color="white" stop-opacity="0"/>
</linearGradient>
<linearGradient id="paint54_linear_10_379" x1="-5.36442e-06" y1="270" x2="1440" y2="270" gradientUnits="userSpaceOnUse">
<stop stop-color="white" stop-opacity="0"/>
<stop offset="0.5" stop-color="white" stop-opacity="0.04"/>
<stop offset="1" stop-color="white" stop-opacity="0"/>
</linearGradient>
<linearGradient id="paint55_linear_10_379" x1="-5.36442e-06" y1="270" x2="1440" y2="270" gradientUnits="userSpaceOnUse">
<stop stop-color="white" stop-opacity="0"/>
<stop offset="0.5" stop-color="white" stop-opacity="0.04"/>
<stop offset="1" stop-color="white" stop-opacity="0"/>
</linearGradient>
<linearGradient id="paint56_linear_10_379" x1="-5.36442e-06" y1="270" x2="1440" y2="270" gradientUnits="userSpaceOnUse">
<stop stop-color="white" stop-opacity="0"/>
<stop offset="0.5" stop-color="white" stop-opacity="0.04"/>
<stop offset="1" stop-color="white" stop-opacity="0"/>
</linearGradient>
<linearGradient id="paint57_linear_10_379" x1="-5.36442e-06" y1="270" x2="1440" y2="270" gradientUnits="userSpaceOnUse">
<stop stop-color="white" stop-opacity="0"/>
<stop offset="0.5" stop-color="white" stop-opacity="0.04"/>
<stop offset="1" stop-color="white" stop-opacity="0"/>
</linearGradient>
<linearGradient id="paint58_linear_10_379" x1="-5.36442e-06" y1="270" x2="1440" y2="270" gradientUnits="userSpaceOnUse">
<stop stop-color="white" stop-opacity="0"/>
<stop offset="0.5" stop-color="white" stop-opacity="0.04"/>
<stop offset="1" stop-color="white" stop-opacity="0"/>
</linearGradient>
<linearGradient id="paint59_linear_10_379" x1="-5.36442e-06" y1="270" x2="1440" y2="270" gradientUnits="userSpaceOnUse">
<stop stop-color="white" stop-opacity="0"/>
<stop offset="0.5" stop-color="white" stop-opacity="0.04"/>
<stop offset="1" stop-color="white" stop-opacity="0"/>
</linearGradient>
<linearGradient id="paint60_linear_10_379" x1="-5.36442e-06" y1="270" x2="1440" y2="270" gradientUnits="userSpaceOnUse">
<stop stop-color="white" stop-opacity="0"/>
<stop offset="0.5" stop-color="white" stop-opacity="0.04"/>
<stop offset="1" stop-color="white" stop-opacity="0"/>
</linearGradient>
<linearGradient id="paint61_linear_10_379" x1="-5.36442e-06" y1="270" x2="1440" y2="270" gradientUnits="userSpaceOnUse">
<stop stop-color="white" stop-opacity="0"/>
<stop offset="0.5" stop-color="white" stop-opacity="0.04"/>
<stop offset="1" stop-color="white" stop-opacity="0"/>
</linearGradient>
<linearGradient id="paint62_linear_10_379" x1="-5.36442e-06" y1="270" x2="1440" y2="270" gradientUnits="userSpaceOnUse">
<stop stop-color="white" stop-opacity="0"/>
<stop offset="0.5" stop-color="white" stop-opacity="0.04"/>
<stop offset="1" stop-color="white" stop-opacity="0"/>
</linearGradient>
<linearGradient id="paint63_linear_10_379" x1="-5.36442e-06" y1="270" x2="1440" y2="270" gradientUnits="userSpaceOnUse">
<stop stop-color="white" stop-opacity="0"/>
<stop offset="0.5" stop-color="white" stop-opacity="0.04"/>
<stop offset="1" stop-color="white" stop-opacity="0"/>
</linearGradient>
<linearGradient id="paint64_linear_10_379" x1="-5.36442e-06" y1="270" x2="1440" y2="270" gradientUnits="userSpaceOnUse">
<stop stop-color="white" stop-opacity="0"/>
<stop offset="0.5" stop-color="white" stop-opacity="0.04"/>
<stop offset="1" stop-color="white" stop-opacity="0"/>
</linearGradient>
<linearGradient id="paint65_linear_10_379" x1="-5.36442e-06" y1="270" x2="1440" y2="270" gradientUnits="userSpaceOnUse">
<stop stop-color="white" stop-opacity="0"/>
<stop offset="0.5" stop-color="white" stop-opacity="0.04"/>
<stop offset="1" stop-color="white" stop-opacity="0"/>
</linearGradient>
<linearGradient id="paint66_linear_10_379" x1="-5.36442e-06" y1="270" x2="1440" y2="270" gradientUnits="userSpaceOnUse">
<stop stop-color="white" stop-opacity="0"/>
<stop offset="0.5" stop-color="white" stop-opacity="0.04"/>
<stop offset="1" stop-color="white" stop-opacity="0"/>
</linearGradient>
<linearGradient id="paint67_linear_10_379" x1="-5.36442e-06" y1="270" x2="1440" y2="270" gradientUnits="userSpaceOnUse">
<stop stop-color="white" stop-opacity="0"/>
<stop offset="0.5" stop-color="white" stop-opacity="0.04"/>
<stop offset="1" stop-color="white" stop-opacity="0"/>
</linearGradient>
<linearGradient id="paint68_linear_10_379" x1="-5.36442e-06" y1="270" x2="1440" y2="270" gradientUnits="userSpaceOnUse">
<stop stop-color="white" stop-opacity="0"/>
<stop offset="0.5" stop-color="white" stop-opacity="0.04"/>
<stop offset="1" stop-color="white" stop-opacity="0"/>
</linearGradient>
<linearGradient id="paint69_linear_10_379" x1="-5.36442e-06" y1="270" x2="1440" y2="270" gradientUnits="userSpaceOnUse">
<stop stop-color="white" stop-opacity="0"/>
<stop offset="0.5" stop-color="white" stop-opacity="0.04"/>
<stop offset="1" stop-color="white" stop-opacity="0"/>
</linearGradient>
<linearGradient id="paint70_linear_10_379" x1="-5.36442e-06" y1="270" x2="1440" y2="270" gradientUnits="userSpaceOnUse">
<stop stop-color="white" stop-opacity="0"/>
<stop offset="0.5" stop-color="white" stop-opacity="0.04"/>
<stop offset="1" stop-color="white" stop-opacity="0"/>
</linearGradient>
<linearGradient id="paint71_linear_10_379" x1="-5.36442e-06" y1="270" x2="1440" y2="270" gradientUnits="userSpaceOnUse">
<stop stop-color="white" stop-opacity="0"/>
<stop offset="0.5" stop-color="white" stop-opacity="0.04"/>
<stop offset="1" stop-color="white" stop-opacity="0"/>
</linearGradient>
<linearGradient id="paint72_linear_10_379" x1="-5.36442e-06" y1="270" x2="1440" y2="270" gradientUnits="userSpaceOnUse">
<stop stop-color="white" stop-opacity="0"/>
<stop offset="0.5" stop-color="white" stop-opacity="0.04"/>
<stop offset="1" stop-color="white" stop-opacity="0"/>
</linearGradient>
<linearGradient id="paint73_linear_10_379" x1="-5.36442e-06" y1="270" x2="1440" y2="270" gradientUnits="userSpaceOnUse">
<stop stop-color="white" stop-opacity="0"/>
<stop offset="0.5" stop-color="white" stop-opacity="0.04"/>
<stop offset="1" stop-color="white" stop-opacity="0"/>
</linearGradient>
<linearGradient id="paint74_linear_10_379" x1="-5.36442e-06" y1="270" x2="1440" y2="270" gradientUnits="userSpaceOnUse">
<stop stop-color="white" stop-opacity="0"/>
<stop offset="0.5" stop-color="white" stop-opacity="0.04"/>
<stop offset="1" stop-color="white" stop-opacity="0"/>
</linearGradient>
<linearGradient id="paint75_linear_10_379" x1="-5.36442e-06" y1="270" x2="1440" y2="270" gradientUnits="userSpaceOnUse">
<stop stop-color="white" stop-opacity="0"/>
<stop offset="0.5" stop-color="white" stop-opacity="0.04"/>
<stop offset="1" stop-color="white" stop-opacity="0"/>
</linearGradient>
<linearGradient id="paint76_linear_10_379" x1="-5.36442e-06" y1="270" x2="1440" y2="270" gradientUnits="userSpaceOnUse">
<stop stop-color="white" stop-opacity="0"/>
<stop offset="0.5" stop-color="white" stop-opacity="0.04"/>
<stop offset="1" stop-color="white" stop-opacity="0"/>
</linearGradient>
<linearGradient id="paint77_linear_10_379" x1="-5.36442e-06" y1="270" x2="1440" y2="270" gradientUnits="userSpaceOnUse">
<stop stop-color="white" stop-opacity="0"/>
<stop offset="0.5" stop-color="white" stop-opacity="0.04"/>
<stop offset="1" stop-color="white" stop-opacity="0"/>
</linearGradient>
<linearGradient id="paint78_linear_10_379" x1="-5.36442e-06" y1="270" x2="1440" y2="270" gradientUnits="userSpaceOnUse">
<stop stop-color="white" stop-opacity="0"/>
<stop offset="0.5" stop-color="white" stop-opacity="0.04"/>
<stop offset="1" stop-color="white" stop-opacity="0"/>
</linearGradient>
<linearGradient id="paint79_linear_10_379" x1="-5.36442e-06" y1="270" x2="1440" y2="270" gradientUnits="userSpaceOnUse">
<stop stop-color="white" stop-opacity="0"/>
<stop offset="0.5" stop-color="white" stop-opacity="0.04"/>
<stop offset="1" stop-color="white" stop-opacity="0"/>
</linearGradient>
<linearGradient id="paint80_linear_10_379" x1="-5.36442e-06" y1="270" x2="1440" y2="270" gradientUnits="userSpaceOnUse">
<stop stop-color="white" stop-opacity="0"/>
<stop offset="0.5" stop-color="white" stop-opacity="0.04"/>
<stop offset="1" stop-color="white" stop-opacity="0"/>
</linearGradient>
<linearGradient id="paint81_linear_10_379" x1="-5.36442e-06" y1="270" x2="1440" y2="270" gradientUnits="userSpaceOnUse">
<stop stop-color="white" stop-opacity="0"/>
<stop offset="0.5" stop-color="white" stop-opacity="0.04"/>
<stop offset="1" stop-color="white" stop-opacity="0"/>
</linearGradient>
<linearGradient id="paint82_linear_10_379" x1="-5.36442e-06" y1="270" x2="1440" y2="270" gradientUnits="userSpaceOnUse">
<stop stop-color="white" stop-opacity="0"/>
<stop offset="0.5" stop-color="white" stop-opacity="0.04"/>
<stop offset="1" stop-color="white" stop-opacity="0"/>
</linearGradient>
<linearGradient id="paint83_linear_10_379" x1="-5.36442e-06" y1="270" x2="1440" y2="270" gradientUnits="userSpaceOnUse">
<stop stop-color="white" stop-opacity="0"/>
<stop offset="0.5" stop-color="white" stop-opacity="0.04"/>
<stop offset="1" stop-color="white" stop-opacity="0"/>
</linearGradient>
<linearGradient id="paint84_linear_10_379" x1="-5.36442e-06" y1="270" x2="1440" y2="270" gradientUnits="userSpaceOnUse">
<stop stop-color="white" stop-opacity="0"/>
<stop offset="0.5" stop-color="white" stop-opacity="0.04"/>
<stop offset="1" stop-color="white" stop-opacity="0"/>
</linearGradient>
<linearGradient id="paint85_linear_10_379" x1="-5.36442e-06" y1="270" x2="1440" y2="270" gradientUnits="userSpaceOnUse">
<stop stop-color="white" stop-opacity="0"/>
<stop offset="0.5" stop-color="white" stop-opacity="0.04"/>
<stop offset="1" stop-color="white" stop-opacity="0"/>
</linearGradient>
<linearGradient id="paint86_linear_10_379" x1="-5.36442e-06" y1="270" x2="1440" y2="270" gradientUnits="userSpaceOnUse">
<stop stop-color="white" stop-opacity="0"/>
<stop offset="0.5" stop-color="white" stop-opacity="0.04"/>
<stop offset="1" stop-color="white" stop-opacity="0"/>
</linearGradient>
<linearGradient id="paint87_linear_10_379" x1="-5.36442e-06" y1="270" x2="1440" y2="270" gradientUnits="userSpaceOnUse">
<stop stop-color="white" stop-opacity="0"/>
<stop offset="0.5" stop-color="white" stop-opacity="0.04"/>
<stop offset="1" stop-color="white" stop-opacity="0"/>
</linearGradient>
<linearGradient id="paint88_linear_10_379" x1="-5.36442e-06" y1="270" x2="1440" y2="270" gradientUnits="userSpaceOnUse">
<stop stop-color="white" stop-opacity="0"/>
<stop offset="0.5" stop-color="white" stop-opacity="0.04"/>
<stop offset="1" stop-color="white" stop-opacity="0"/>
</linearGradient>
<linearGradient id="paint89_linear_10_379" x1="-5.36442e-06" y1="270" x2="1440" y2="270" gradientUnits="userSpaceOnUse">
<stop stop-color="white" stop-opacity="0"/>
<stop offset="0.5" stop-color="white" stop-opacity="0.04"/>
<stop offset="1" stop-color="white" stop-opacity="0"/>
</linearGradient>
<linearGradient id="paint90_linear_10_379" x1="-5.36442e-06" y1="270" x2="1440" y2="270" gradientUnits="userSpaceOnUse">
<stop stop-color="white" stop-opacity="0"/>
<stop offset="0.5" stop-color="white" stop-opacity="0.04"/>
<stop offset="1" stop-color="white" stop-opacity="0"/>
</linearGradient>
<linearGradient id="paint91_linear_10_379" x1="-5.36442e-06" y1="270" x2="1440" y2="270" gradientUnits="userSpaceOnUse">
<stop stop-color="white" stop-opacity="0"/>
<stop offset="0.5" stop-color="white" stop-opacity="0.04"/>
<stop offset="1" stop-color="white" stop-opacity="0"/>
</linearGradient>
<linearGradient id="paint92_linear_10_379" x1="-5.36442e-06" y1="270" x2="1440" y2="270" gradientUnits="userSpaceOnUse">
<stop stop-color="white" stop-opacity="0"/>
<stop offset="0.5" stop-color="white" stop-opacity="0.04"/>
<stop offset="1" stop-color="white" stop-opacity="0"/>
</linearGradient>
<linearGradient id="paint93_linear_10_379" x1="-5.36442e-06" y1="270" x2="1440" y2="270" gradientUnits="userSpaceOnUse">
<stop stop-color="white" stop-opacity="0"/>
<stop offset="0.5" stop-color="white" stop-opacity="0.04"/>
<stop offset="1" stop-color="white" stop-opacity="0"/>
</linearGradient>
<linearGradient id="paint94_linear_10_379" x1="-5.36442e-06" y1="270" x2="1440" y2="270" gradientUnits="userSpaceOnUse">
<stop stop-color="white" stop-opacity="0"/>
<stop offset="0.5" stop-color="white" stop-opacity="0.04"/>
<stop offset="1" stop-color="white" stop-opacity="0"/>
</linearGradient>
<linearGradient id="paint95_linear_10_379" x1="-5.36442e-06" y1="270" x2="1440" y2="270" gradientUnits="userSpaceOnUse">
<stop stop-color="white" stop-opacity="0"/>
<stop offset="0.5" stop-color="white" stop-opacity="0.04"/>
<stop offset="1" stop-color="white" stop-opacity="0"/>
</linearGradient>
</defs>
</svg>
